<svg width="15" height="9" viewBox="0 0 15 9" fill="none" xmlns="http://www.w3.org/2000/svg">
<mask id="mask0" mask-type="alpha" maskUnits="userSpaceOnUse" x="0" y="0" width="15" height="9">
<path d="M1.50152 0.749892C1.30252 0.749892 1.11227 0.831124 0.974684 0.974576C0.831232 1.11216 0.75 1.30241 0.75 1.50141C0.75 1.70159 0.832201 1.89292 0.977249 2.03069L6.97224 8.02568C7.11001 8.17073 7.30134 8.25293 7.50152 8.25293C7.7017 8.25293 7.89303 8.17073 8.0308 8.02568L14.0258 2.03068C14.1708 1.89291 14.253 1.70159 14.253 1.50141C14.253 1.30242 14.1718 1.11217 14.0284 0.974582C13.8908 0.831126 13.7005 0.749892 13.5015 0.749892C13.3014 0.749892 13.1101 0.832058 12.9723 0.97705L7.50152 6.43817L2.03072 0.977055C1.89295 0.83206 1.70166 0.749892 1.50152 0.749892Z" fill="white" stroke="#CC0000" stroke-width="0.5"/>
</mask>
<g mask="url(#mask0)">
<path d="M1.50152 0.749892C1.30252 0.749892 1.11227 0.831124 0.974684 0.974576C0.831232 1.11216 0.75 1.30241 0.75 1.50141C0.75 1.70159 0.832201 1.89292 0.977249 2.03069L6.97224 8.02568C7.11001 8.17073 7.30134 8.25293 7.50152 8.25293C7.7017 8.25293 7.89303 8.17073 8.0308 8.02568L14.0258 2.03068C14.1708 1.89291 14.253 1.70159 14.253 1.50141C14.253 1.30242 14.1718 1.11217 14.0284 0.974582C13.8908 0.831126 13.7005 0.749892 13.5015 0.749892C13.3014 0.749892 13.1101 0.832058 12.9723 0.97705L7.50152 6.43817L2.03072 0.977055C1.89295 0.83206 1.70166 0.749892 1.50152 0.749892Z" fill="#990000" stroke="#990000" stroke-width="0.5"/>
<path d="M-4.49854 -7.74854H-4.74854V-7.49854L-4.74854 16.5015V16.7515H-4.49854H19.5015H19.7515V16.5015V-7.49854V-7.74854H19.5015H-4.49854Z" fill="#990000" stroke="#990000" stroke-width="0.5"/>
</g>
</svg>
